# xmcd
#
# Track frame offsets:
#   150
#   12409
#   29212
#   46059
#   58980
#   80209
#   94300
#   115032
#   129851
#   148638
#   162093
#   179651
#   194702
#   215578
#
# Disc length: 3179 seconds
#
# Revision: 0
# Processed by: cddbd v1.5PL3 Copyright (c) Steve Scherf et al.
# Submitted via: uFREEDB ActiveX Control 1.5
#
DISCID=d40c690e
DTITLE=Bruno e Marrone - Uma Nova História
DYEAR=2002
DGENRE=Sertanejo
TTITLE0=Dormi Na Praça
TTITLE1=Vida Vazia
TTITLE2=Agarra Em Mim
TTITLE3=Feriado Nacional
TTITLE4=Passou Da Conta
TTITLE5=Amor De Carnaval
TTITLE6=Por Um Minuto
TTITLE7=Programa De Fim De Semana
TTITLE8=Meu Jeito De Sentir
TTITLE9=Vivendo De Passado
TTITLE10=A Solidão É Uma Ressaca
TTITLE11=Só Sei Te Amar
TTITLE12=Medo
TTITLE13=Ciúmes/Dama/Briga
EXTD=DMC Record
EXTT0=
EXTT1=
EXTT2=
EXTT3=
EXTT4=
EXTT5=
EXTT6=
EXTT7=
EXTT8=
EXTT9=
EXTT10=
EXTT11=
EXTT12=
EXTT13=
PLAYORDER=
